<?xml version="1.0" standalone="no"?>
<!DOCTYPE svg PUBLIC "-//W3C//DTD SVG 20010904//EN"
 "http://www.w3.org/TR/2001/REC-SVG-20010904/DTD/svg10.dtd">
<svg version="1.0" xmlns="http://www.w3.org/2000/svg"
 width="700.000000pt" height="700.000000pt" viewBox="0 0 700.000000 700.000000"
 preserveAspectRatio="xMidYMid meet">
<metadata>
Created by potrace 1.14, written by Peter Selinger 2001-2017
</metadata>
<g transform="translate(0.000000,700.000000) scale(0.100000,-0.100000)"
fill="#000000" stroke="none">
<path d="M4700 6989 c-406 -46 -808 -217 -1105 -469 -118 -100 -1129 -1112
-1204 -1205 -238 -295 -393 -652 -446 -1026 -19 -134 -22 -403 -5 -534 58
-471 266 -892 608 -1232 108 -107 273 -235 327 -253 49 -16 136 -7 178 19 18
11 113 102 212 203 190 193 226 242 260 360 9 31 16 92 17 135 2 118 -15 144
-167 263 -151 118 -275 317 -327 527 -18 70 -22 117 -22 228 0 156 18 250 73
384 69 165 107 209 665 767 307 307 548 540 588 568 329 231 770 239 1109 22
101 -65 242 -212 300 -312 105 -180 144 -336 136 -544 -6 -160 -28 -252 -93
-389 -60 -128 -115 -201 -271 -361 -73 -76 -140 -153 -148 -173 -23 -56 -18
-117 19 -240 48 -158 73 -288 92 -467 8 -85 17 -174 20 -196 16 -138 186 -225
312 -160 36 18 601 582 691 689 262 311 425 703 472 1132 14 133 6 389 -16
525 -55 332 -188 646 -387 916 -96 129 -287 322 -412 416 -306 228 -667 369
-1045 408 -119 12 -322 11 -431 -1z"/>
<path d="M3964 4720 c-64 -32 -402 -380 -441 -455 -44 -85 -65 -164 -65 -253
-2 -117 15 -144 167 -262 31 -24 78 -69 105 -100 306 -355 332 -847 62 -1230
-47 -68 -904 -937 -1052 -1067 -197 -174 -407 -254 -665 -254 -274 0 -496 92
-690 286 -192 192 -285 417 -285 690 0 181 43 345 131 496 54 94 105 156 246
299 68 71 129 142 138 163 23 56 18 116 -20 242 -56 184 -84 345 -104 586 -9
112 -22 147 -67 193 -57 56 -135 77 -214 56 -40 -10 -79 -45 -358 -323 -173
-172 -342 -346 -377 -388 -257 -305 -419 -698 -466 -1124 -14 -133 -6 -389 16
-525 120 -728 606 -1334 1286 -1604 224 -89 440 -133 694 -143 506 -18 990
144 1393 468 104 84 1132 1113 1212 1214 239 301 391 650 444 1026 20 136 23
400 6 534 -47 384 -209 765 -454 1065 -130 159 -361 365 -461 411 -54 25 -130
24 -181 -1z"/>
</g>
</svg>
