<svg xmlns="http://www.w3.org/2000/svg" width="18.805" height="18.805" viewBox="0 0 4.975 4.975">
    <path
        d="M1.745 2.631s.342-1.585.344-1.587c.003-.003.17-.029.373-.056.2-.027.375-.05.386-.053.016-.003.02 0 .02.012 0 .01-.054.27-.12.578-.065.308-.118.564-.118.57 0 .02.107.012.19-.012a.69.69 0 00.304-.19.891.891 0 00.287-.64.488.488 0 00-.072-.287C3.219.762 3 .672 2.657.686c-.641.026-1.15.45-1.242 1.035-.032.204-.024.42.02.521.04.095.042.09-.052.083-.262-.02-.406-.114-.464-.304-.024-.08-.022-.29.004-.396.053-.21.147-.369.329-.556.155-.16.32-.28.525-.383.34-.17.672-.25 1.045-.25.176 0 .285.011.412.044.182.046.327.116.45.217a.78.78 0 01.26.463c.053.33-.127.703-.44.91l-.07.05z"
        fill="currentColor" />
    <path
        d="M2.807 4.498a.555.555 0 01-.355-.14.226.226 0 01-.07-.113.364.364 0 01-.015-.168c0-.065.012-.129.033-.19l.027-.086.062.057c.033.03.069.057.107.08.17.094.383.05.5-.103.15-.199.24-.616.204-.949-.033-.297-.147-.454-.368-.503a.765.765 0 00-.212-.01.598.598 0 00-.152.014 93.63 93.63 0 00-.221 1.017L2.13 4.411h-.382c-.21 0-.382-.002-.382-.005 0-.009.379-1.776.379-1.776l1.689-.51s.028.01.043.011c.134.031.255.1.35.2.25.274.289.731.108 1.3a1.442 1.442 0 01-.498.711.977.977 0 01-.63.155z"
        fill="currentColor" />
</svg>