<?xml version="1.0" standalone="no"?>
<!DOCTYPE svg PUBLIC "-//W3C//DTD SVG 20010904//EN" "http://www.w3.org/TR/2001/REC-SVG-20010904/DTD/svg10.dtd">
<svg version="1.0" xmlns="http://www.w3.org/2000/svg" width="55pt" height="55pt"
    viewBox="0 0 55 55" preserveAspectRatio="xMidYMid meet">

    <g transform="translate(0,55) scale(0.1,-0.1)" fill="currentColor" stroke="none">
        <path d="M186 534 c-34 -11 -64 -31 -102 -68 -112 -113 -112 -269 0 -382 113
-112 269 -112 382 0 112 113 112 269 0 382 -79 79 -171 101 -280 68z m234
-123 c0 -10 -7 -24 -16 -32 -9 -7 -13 -21 -10 -34 7 -26 -23 -58 -45 -50 -9 3
-34 -15 -64 -45 -27 -27 -54 -50 -59 -50 -5 0 -20 -10 -33 -22 -21 -20 -25
-20 -39 -7 -13 14 -12 20 10 60 14 24 45 64 69 87 29 28 43 50 40 61 -6 22 21
45 43 37 9 -3 27 3 41 14 29 23 63 12 63 -19z m-260 -256 c16 -20 6 -45 -19
-45 -23 0 -32 18 -19 43 11 21 22 22 38 2z" />
        <path d="M260 315 l-34 -35 35 0 c22 0 42 7 53 18 15 18 15 20 -2 35 -17 16
-20 15 -52 -18z" />
    </g>
</svg>