<svg width="128" height="131" viewBox="0 0 128 131" fill="none" xmlns="http://www.w3.org/2000/svg">
<g clip-path="url(#clip0_9_24)">
<path d="M0.288819 28.4134L0.311052 6.89218C0.311052 6.89218 0.915957 -2.97121 10.6943 2.12012C20.4747 7.21373 30.5501 12.3019 30.5501 12.3019C30.5501 12.3019 33.3663 13.9492 30.5478 15.4429C27.7316 16.9323 2.80827 29.9093 2.80827 29.9093C2.80827 29.9093 0.288819 30.9534 0.288819 28.4134ZM0.184894 103.093L0.220283 124.614C0.220283 124.614 0.836304 134.474 10.6079 129.378C20.3862 124.278 30.4568 119.178 30.4568 119.178C30.4568 119.178 33.2688 117.525 30.4525 116.04C27.6317 114.551 2.70187 101.595 2.70187 101.595C2.70187 101.595 0.175817 100.552 0.184894 103.093ZM37.7756 46.1799C42.6017 43.8365 58.6418 35.374 62.2315 33.5124C67.1016 30.991 62.3177 28.6763 62.3177 28.6763L37.8466 15.9192C37.8466 15.9192 33.4836 13.5537 33.6788 18.5335C33.8782 23.5153 33.6454 43.2432 33.6454 43.2432C33.6454 43.2432 32.9541 48.5235 37.7756 46.1799ZM4.32168 63.8792C9.14552 61.537 25.1855 53.0745 28.7773 51.2117C33.6454 48.6891 28.8615 46.3777 28.8615 46.3777L4.39044 33.6185C4.39044 33.6185 0.0274242 31.2519 0.22461 36.2337C0.42404 41.2146 0.193737 60.9402 0.193737 60.9402C0.193737 60.9402 -0.497609 66.2228 4.32168 63.8792ZM71.1876 63.2019C76.0069 60.8617 92.0515 52.3972 95.6432 50.5376C100.511 48.0153 95.7254 45.7015 95.7254 45.7015L71.2563 32.9422C71.2563 32.9422 66.8933 30.5789 67.0907 35.5587C67.2879 40.5396 67.0574 60.2684 67.0574 60.2684C67.0574 60.2684 66.3638 65.5476 71.1876 63.2019ZM37.8113 81.0404C42.6349 78.6979 58.6772 70.2346 62.2669 68.3738C67.1373 65.8503 62.3511 63.5366 62.3511 63.5366L37.8798 50.7786C37.8798 50.7786 33.5193 48.4131 33.7142 53.396C33.9113 58.3758 33.6808 78.1026 33.6808 78.1026C33.6808 78.1026 32.9874 83.3829 37.8113 81.0404ZM4.29061 97.9686C9.11444 95.6238 25.1524 87.1647 28.7442 85.302C33.6143 82.7796 28.8307 80.4648 28.8307 80.4648L4.35935 67.7054C4.35935 67.7054 -0.00570729 65.3421 0.193737 70.3219C0.386378 75.3017 0.158114 95.0339 0.158114 95.0339C0.158114 95.0339 -0.535272 100.313 4.29061 97.9686ZM37.7756 115.567C42.5972 113.229 58.6375 104.764 62.2293 102.899C67.0996 100.379 62.3112 98.0701 62.3112 98.0701L37.8401 85.3131C37.8401 85.3131 33.4793 82.9418 33.6788 87.9228C33.8714 92.9059 33.6431 112.633 33.6431 112.633C33.6431 112.633 32.9497 117.914 37.7756 115.567ZM71.1787 98.6202C76.0026 96.278 92.0449 87.8146 95.6344 85.9539C100.505 83.4304 95.7143 81.1189 95.7143 81.1189L71.2475 68.3596C71.2475 68.3596 66.8845 65.9918 67.0817 70.9738C67.2811 75.9545 67.0485 95.6836 67.0485 95.6836C67.0485 95.6836 66.3594 100.963 71.1787 98.6202ZM100.525 52.7518L100.498 79.0582C100.498 79.0582 100.13 82.9364 103.651 81.1377C107.166 79.3356 117.367 74.0775 124.054 70.6366C133.507 65.7698 124.076 61.0407 124.076 61.0407C124.076 61.0407 107.028 52.2237 103.609 50.4548C100.192 48.686 100.525 52.7518 100.525 52.7518Z" fill="url(#paint0_linear_9_24)"/>
</g>
<defs>
<linearGradient id="paint0_linear_9_24" x1="0.12357" y1="65.7505" x2="128.261" y2="65.7505" gradientUnits="userSpaceOnUse">
<stop offset="0.058561" stop-color="#FBD446"/>
<stop offset="1" stop-color="#E2B512"/>
</linearGradient>
<clipPath id="clip0_9_24">
<rect width="128" height="130.931" fill="white"/>
</clipPath>
</defs>
</svg>
