<svg width="512" height="512" viewBox="0 0 512 512" fill="none" xmlns="http://www.w3.org/2000/svg">
    <path
        d="M232.5 1.09997C164.6 7.59997 101.8 41 58.3 93.7C18.9 141.5 -2.00001 203.1 0.399989 264.5C3.49999 348.1 45.4 423 115.2 469.7C157.9 498.2 212.6 513.6 264.5 511.6C348.1 508.5 423 466.6 469.7 396.8C498.2 354.1 513.6 299.4 511.6 247.5C508.5 163.9 466.6 89 396.8 42.3C350.1 11.1 289 -4.20003 232.5 1.09997ZM215 220.5V346H291H367V381V416H256H145V255.5V95H180H215V220.5ZM367 130V165H338.5H310V243V321H275H240V208V95H303.5H367V130Z"
        fill="currentColor" />
</svg>