<svg width="128" height="128" viewBox="0 0 128 128" fill="none" xmlns="http://www.w3.org/2000/svg">
<g clip-path="url(#clip0_4_19)">
<path d="M109.364 5.63636H113.364V1.63636H109.364V5.63636ZM109.364 122V126H113.364V122H109.364ZM95.7273 122L92.4412 124.281L93.6344 126H95.7273V122ZM32.3182 30.6364L35.6043 28.3557L34.411 26.6364H32.3182V30.6364ZM31.1818 30.6364V26.6364H27.1818V30.6364H31.1818ZM31.1818 122V126H35.1818V122H31.1818ZM17.0909 122H13.0909V126H17.0909V122ZM17.0909 5.63636V1.63636H13.0909V5.63636H17.0909ZM30.7273 5.63636L34.0122 3.35401L32.8188 1.63636H30.7273V5.63636ZM94.3636 97.2273L91.0787 99.5096L92.2721 101.227H94.3636V97.2273ZM95.5 97.2273V101.227H99.5V97.2273H95.5ZM95.5 5.63636V1.63636H91.5V5.63636H95.5ZM105.364 5.63636V122H113.364V5.63636H105.364ZM109.364 118H95.7273V126H109.364V118ZM99.0134 119.719L35.6043 28.3557L29.0321 32.917L92.4412 124.281L99.0134 119.719ZM32.3182 26.6364H31.1818V34.6364H32.3182V26.6364ZM27.1818 30.6364V122H35.1818V30.6364H27.1818ZM31.1818 118H17.0909V126H31.1818V118ZM21.0909 122V5.63636H13.0909V122H21.0909ZM17.0909 9.63636H30.7273V1.63636H17.0909V9.63636ZM27.4423 7.91871L91.0787 99.5096L97.6486 94.9449L34.0122 3.35401L27.4423 7.91871ZM94.3636 101.227H95.5V93.2273H94.3636V101.227ZM99.5 97.2273V5.63636H91.5V97.2273H99.5ZM95.5 9.63636H109.364V1.63636H95.5V9.63636Z" fill="white"/>
</g>
<defs>
<clipPath id="clip0_4_19">
<rect width="128" height="128" fill="white"/>
</clipPath>
</defs>
</svg>
