<?xml version="1.0" standalone="no"?>
<!DOCTYPE svg PUBLIC "-//W3C//DTD SVG 20010904//EN" "http://www.w3.org/TR/2001/REC-SVG-20010904/DTD/svg10.dtd">
<svg version="1.0" xmlns="http://www.w3.org/2000/svg" width="512pt" height="512pt"
    viewBox="0 0 512 512" preserveAspectRatio="xMidYMid meet">

    <g transform="translate(0,512) scale(0.1,-0.1)" fill="currentColor" stroke="none">
        <path d="M2350 5109 c-514 -45 -972 -227 -1388 -552 -98 -76 -343 -318 -390
-384 l-23 -32 56 19 c300 103 753 112 1082 20 333 -92 586 -290 708 -554 33
-70 34 -71 44 -43 21 56 91 145 175 225 197 185 457 319 751 384 94 21 131 22
620 28 l520 5 -105 109 c-398 414 -936 686 -1504 761 -151 19 -410 26 -546 14z" />
        <path d="M779 3805 c-174 -28 -318 -75 -489 -158 l-65 -32 -42 -105 c-163
-408 -217 -856 -157 -1297 22 -160 28 -171 44 -92 42 206 174 630 267 859 152
376 344 620 488 620 32 0 38 -4 52 -37 13 -32 15 -69 10 -228 -7 -245 -18
-314 -177 -1090 -44 -218 -50 -281 -75 -775 -18 -366 -25 -419 -60 -465 l-24
-33 41 -48 c336 -395 776 -683 1250 -819 621 -179 1269 -121 1853 165 914 448
1483 1426 1415 2435 -23 342 -96 639 -229 928 l-39 84 -288 6 c-159 4 -337 10
-395 14 l-106 6 -7 -69 c-13 -121 -34 -258 -121 -759 -126 -731 -175 -1096
-196 -1465 -21 -387 -23 -396 -55 -443 -60 -85 -224 -137 -430 -137 -85 0 -95
2 -123 26 -40 33 -51 79 -60 236 -15 271 23 617 119 1098 110 546 256 1058
396 1387 24 57 44 105 44 108 0 16 -205 -9 -370 -46 -52 -12 -207 -55 -345
-96 -278 -82 -388 -104 -436 -86 -26 10 -29 10 -25 -5 47 -154 43 -387 -9
-566 -98 -339 -376 -644 -684 -751 -206 -72 -497 -83 -682 -25 -108 33 -168
103 -154 177 8 46 52 65 209 93 266 48 349 83 462 195 125 123 180 278 191
530 7 171 -5 253 -53 353 -67 140 -206 242 -399 293 -104 28 -413 36 -546 14z" />
    </g>
</svg>