<svg width="297" height="212" viewBox="0 0 297 212" fill="none" xmlns="http://www.w3.org/2000/svg">
    <path
        d="M3.35712 86.6698L146.721 161.578C147.609 162.046 148.598 162.29 149.601 162.29C150.604 162.29 151.593 162.046 152.481 161.578L295.847 86.6698C296.859 86.1434 297.705 85.3498 298.296 84.3746C298.887 83.3994 299.2 82.2807 299.2 81.1402C299.2 79.9989 298.887 78.8803 298.296 77.9051C297.705 76.9299 296.859 76.1363 295.847 75.6098L152.481 0.701723C151.589 0.240976 150.599 0 149.595 0C148.591 0 147.601 0.240976 146.708 0.701723L3.34475 75.6098C2.33564 76.1377 1.49048 76.9334 0.901149 77.9086C0.31182 78.8845 0.000894839 80.0032 0.00217066 81.1437C0.00344647 82.2843 0.316884 83.4022 0.908397 84.3767C1.49991 85.3505 2.34683 86.1441 3.35712 86.6698Z"
        fill="currentColor" />
    <path
        d="M295.846 125.324L272.121 112.932L158.24 172.427C155.579 173.817 152.623 174.545 149.622 174.549C146.621 174.554 143.663 173.834 140.999 172.452L27.0766 112.927L3.35535 125.319C2.34397 125.846 1.49624 126.64 0.90457 127.615C0.312901 128.591 0 129.71 0 130.851C0 131.993 0.312901 133.112 0.90457 134.088C1.49624 135.063 2.34397 135.857 3.35535 136.383L146.719 211.288C147.607 211.755 148.595 212 149.599 212C150.602 212 151.591 211.755 152.479 211.288L295.846 136.383C296.856 135.856 297.703 135.062 298.294 134.086C298.885 133.111 299.198 131.992 299.198 130.851C299.198 129.711 298.885 128.591 298.294 127.616C297.703 126.641 296.856 125.847 295.846 125.319V125.324Z"
        fill="currentColor" />
</svg>