<svg width="297" height="193" viewBox="0 0 297 193" fill="none" xmlns="http://www.w3.org/2000/svg">
    <path
        d="M49.3509 160.262C44.7066 160.262 40.2526 158.417 36.9685 155.133C33.6845 151.849 31.8396 147.396 31.8396 142.752V31H17.5113C12.867 31 8.41296 32.8448 5.12895 36.1287C1.84494 39.4125 0 43.8664 0 48.5105L0 174.59C0 179.234 1.84494 183.687 5.12895 186.971C8.41296 190.255 12.867 192.1 17.5113 192.1H250.259C254.903 192.1 259.357 190.255 262.641 186.971C265.925 183.687 267.77 179.234 267.77 174.59V160.262H49.3509Z"
        fill="currentColor" />
    <path
        d="M43.118 4.51758V4.51758C39.8922 7.36498 38 11.4998 38 15.8025V77.7337V140.387C38 144.251 39.5669 147.95 42.3425 150.638V150.638V150.638C45.0177 153.425 48.7135 155 52.5764 155H167.5H282.424C286.286 155 289.982 153.425 292.657 150.638V150.638V150.638C295.433 147.95 297 144.251 297 140.387V77.7337V15.8025C297 11.4997 295.108 7.36498 291.882 4.51758V4.51758L291.212 3.90744C288.45 1.39332 284.849 -5.28991e-06 281.114 -5.28991e-06H167.5H53.8855C50.1507 -5.28991e-06 46.5502 1.39332 43.7882 3.90744L43.118 4.51758ZM177.426 62.9347C193.245 70.5678 206.272 77.2663 206.272 77.7337C206.272 78.6683 148.889 105.93 147.028 105.93C146.253 105.93 145.787 92.8442 145.787 76.9548C145.787 63.847 146.186 53.3403 146.743 49.8438C146.888 48.9357 147.62 48.754 148.46 49.1286C152.3 50.841 164.091 56.5004 177.426 62.9347Z"
        fill="currentColor" />
</svg>